<svg width="85" height="85" viewBox="0 0 85 85" fill="none" xmlns="http://www.w3.org/2000/svg">
<path d="M2.80548 16.8364C4.11868 16.8364 5.37219 17.8522 5.37219 19.4655C5.37219 21.2581 4.05899 22.2739 2.80548 22.2739C1.3132 22.2739 0 21.2581 0 19.4655C0 17.8522 1.3132 16.8364 2.80548 16.8364ZM0.477528 25.7992H5.01404V43.4858H0.477528V25.7992Z" fill="#FF5C00"/>
<path d="M10.6846 16H15.2211V27.4126C16.3552 26.3371 18.2653 25.5006 20.2948 25.5006C24.5926 25.5006 27.5771 27.7114 27.5771 33.2086V43.4859H23.0406V33.8061C23.0406 31.177 21.608 29.743 19.101 29.743C17.6684 29.743 16.2358 30.3405 15.2211 31.3563V43.4859H10.6846V16Z" fill="#FF5C00"/>
<path d="M32.2929 27.0539C33.8449 26.1576 36.2325 25.3809 38.5008 25.3809C43.6939 25.3809 45.5443 28.0697 45.5443 32.7304V43.4857H41.6047V41.4541C40.6497 42.7687 38.7993 43.7247 36.4116 43.7247C33.1883 43.7247 30.8604 41.6931 30.8604 38.2873C30.8604 34.4034 33.7255 32.5511 37.307 32.5511C38.8589 32.5511 40.4706 33.0889 41.3063 33.6864C41.4257 30.7585 40.6497 29.1452 38.0233 29.1452C35.9938 29.1452 34.6806 29.8025 33.3674 30.3403L32.2929 27.0539ZM41.366 38.2873V36.4947C40.59 35.8972 39.5752 35.6582 38.262 35.6582C36.7698 35.6582 35.4566 36.3752 35.4566 37.869C35.4566 39.1836 36.531 39.9603 37.9636 39.9603C39.8737 39.9006 40.8288 39.0641 41.366 38.2873Z" fill="#FF5C00"/>
<path d="M59.0348 43.5457H55.6921L47.6338 25.7993H53.006L56.289 33.3878C56.7665 34.4634 57.3037 36.0169 57.6022 37.3912C57.9006 36.0767 58.4379 34.4634 58.9154 33.3281L61.9596 25.8591H66.7349L59.0348 43.5457Z" fill="#FF5C00"/>
<path d="M83.5074 41.6931C81.7167 43.1869 79.2097 43.904 76.7624 43.904C71.0917 43.904 67.2715 40.1993 67.2715 34.6424C67.2715 29.5037 70.7933 25.3809 76.5833 25.3809C81.1198 25.3809 84.94 28.6672 84.94 33.5669C84.94 34.6424 84.8803 35.3594 84.6416 36.0167H71.8677C72.2855 38.7055 74.3747 40.1396 77.1802 40.1396C79.3291 40.1396 81.1198 39.3628 82.1346 38.5263L83.5074 41.6931ZM71.808 33.0291H80.4632C80.5229 30.878 79.0306 29.205 76.4042 29.205C73.7181 29.1452 72.2855 30.6988 71.808 33.0291Z" fill="#FF5C00"/>
<path d="M0.955078 47.8477H2.86519V52.3888H9.4312V54.1814H2.86519V62.2479C2.86519 65.4147 3.93963 67.1475 6.50634 67.1475C7.58078 67.1475 8.53584 66.7293 9.13275 66.2513L9.72966 67.7451C8.95367 68.3426 7.64047 68.8803 6.0885 68.8803C2.44735 68.8803 1.01477 66.6098 1.01477 62.4869V47.8477H0.955078Z" fill="black"/>
<path d="M13.9083 52.329H15.8184V54.4801C16.7138 53.1058 18.0867 52.0303 20.1759 52.0303C21.4891 52.0303 22.1457 52.2693 22.6829 52.6278L22.0263 54.4204C21.2503 53.9423 20.7728 53.8228 19.758 53.8228C17.6092 53.8228 16.5347 55.1374 15.7587 56.4519V68.6413H13.8486V52.329H13.9083Z" fill="black"/>
<path d="M25.7867 53.5241C27.279 52.568 29.0697 52.0303 30.9798 52.0303C35.5164 52.0303 37.0086 54.4204 37.0086 58.5432V68.6413H35.0985V66.1317C34.0838 67.506 32.4721 68.8206 29.5473 68.8206C26.5627 68.8206 24.5332 66.9085 24.5332 63.9807C24.5332 60.6943 27.2193 58.9018 30.7411 58.9018C32.0543 58.9018 33.845 59.2005 35.1582 60.1565C35.1582 56.2727 34.9194 53.7631 30.8605 53.7631C28.9503 53.7631 27.7565 54.2411 26.3239 55.0179L25.7867 53.5241ZM35.1582 64.5184V61.8296C33.9644 60.9333 32.5915 60.5151 30.9201 60.5151C28.7713 60.5151 26.5627 61.5308 26.5627 63.9209C26.5627 65.9525 28.1744 67.0878 30.2039 67.0878C32.8899 67.0878 34.2628 65.7135 35.1582 64.5184Z" fill="black"/>
<path d="M48.8871 68.8804H47.5739L39.9932 52.3291H42.2017L46.8576 62.6064C47.3352 63.7417 47.9321 64.9965 48.3499 66.1916C48.7677 64.9965 49.305 63.682 49.7825 62.4869L54.2593 52.3291H56.2291L48.8871 68.8804Z" fill="black"/>
<path d="M72.3451 66.6695C70.8529 68.2231 68.5249 68.9998 66.3163 68.9998C61.1829 68.9998 57.6611 65.6537 57.6611 60.5151C57.6611 55.7946 60.586 52.0303 65.8985 52.0303C70.0769 52.0303 73.3002 54.9581 73.3002 59.3798C73.3002 59.9773 73.2405 60.4553 73.1808 60.8736H59.7503C59.8697 64.7574 62.4961 67.1475 66.4357 67.1475C68.6443 67.1475 70.6141 66.311 71.7482 65.1757L72.3451 66.6695ZM59.6906 59.3798H71.3901C71.3304 55.9142 69.1218 53.8228 65.7194 53.8228C62.138 53.8228 59.9891 56.1532 59.6906 59.3798Z" fill="black"/>
<path d="M77.8369 48.0869H79.747V63.4432C79.747 65.893 80.3439 67.088 82.075 67.088C82.9703 67.088 83.806 66.6698 84.3432 66.3113L84.8208 67.8051C84.0448 68.4026 82.851 68.8806 81.3587 68.8806C78.9114 68.8806 77.8369 67.4466 77.8369 64.459V48.0869Z" fill="black"/>
</svg>
