<svg width="283" height="278" viewBox="0 0 283 278" fill="none" xmlns="http://www.w3.org/2000/svg">
<path d="M92.7576 262.19C43.4377 262.19 3.45472 222.152 3.45472 172.76C3.45473 123.369 43.4377 83.3301 92.7576 83.3301C142.078 83.3301 182.061 123.369 182.061 172.76C182.061 222.152 142.078 262.19 92.7576 262.19Z" stroke="#868686"/>
<path d="M102.21 265.74C47.0167 265.74 2.27255 220.933 2.27255 165.66C2.27255 110.387 47.0167 65.5806 102.21 65.5806C157.403 65.5806 202.147 110.387 202.147 165.66C202.147 220.933 157.403 265.74 102.21 265.74Z" stroke="#868686"/>
<path d="M109.891 269.29C49.4769 269.29 0.500466 220.245 0.500468 159.744C0.500471 99.2429 49.4769 50.1982 109.891 50.1982C170.305 50.1982 219.281 99.243 219.281 159.744C219.281 220.245 170.305 269.29 109.891 269.29Z" stroke="#868686"/>
<path d="M121.117 271.656C56.1345 271.656 3.45489 218.903 3.45489 153.827C3.45489 88.7517 56.1345 35.9985 121.117 35.9985C186.099 35.9985 238.778 88.7517 238.778 153.827C238.778 218.903 186.099 271.656 121.117 271.656Z" stroke="#868686"/>
<path d="M132.046 274.023C62.6589 274.023 6.40832 217.694 6.40832 148.207C6.40832 78.7198 62.6589 22.3906 132.046 22.3906C201.433 22.3906 257.684 78.7198 257.684 148.207C257.684 217.694 201.433 274.023 132.046 274.023Z" stroke="#868686"/>
<path d="M144.453 276.981C68.2142 276.981 6.40883 215.09 6.40884 138.741C6.40884 62.3918 68.2142 0.499991 144.453 0.499994C220.693 0.499997 282.498 62.3918 282.498 138.741C282.498 215.09 220.693 276.981 144.453 276.981Z" stroke="#868686"/>
</svg>
