<svg width="48" height="43" viewBox="0 0 48 43" fill="none" xmlns="http://www.w3.org/2000/svg">
<path d="M47.5642 15.8511H33.6166C33.3769 15.8511 33.1807 16.0472 33.1807 16.2869V18.9021C33.1807 19.1418 33.3769 19.338 33.6166 19.338H47.5642C47.8039 19.338 48 19.1418 48 18.9021V16.2869C48 16.0472 47.8039 15.8511 47.5642 15.8511ZM40.2635 23.2607H33.6166C33.3769 23.2607 33.1807 23.4569 33.1807 23.6966V26.3118C33.1807 26.5515 33.3769 26.7476 33.6166 26.7476H40.2635C40.5032 26.7476 40.6994 26.5515 40.6994 26.3118V23.6966C40.6994 23.4569 40.5032 23.2607 40.2635 23.2607ZM22.0826 10.9749H19.7235C19.3857 10.9749 19.1133 11.2473 19.1133 11.5851V25.0968C19.1133 25.2929 19.2059 25.4727 19.3639 25.5871L27.4764 31.504C27.7488 31.7001 28.1302 31.6456 28.3263 31.3732L29.7265 29.4609V29.4554C29.9227 29.183 29.8627 28.8016 29.5903 28.6055L22.6874 23.6149V11.5851C22.6928 11.2473 22.4149 10.9749 22.0826 10.9749Z" fill="#FF5C00"/>
<path d="M39.925 30.1197H36.7759C36.4708 30.1197 36.182 30.2777 36.0186 30.5393C35.3267 31.6344 34.5203 32.6477 33.5941 33.5739C31.9978 35.1703 30.1399 36.4234 28.075 37.2951C25.9338 38.1995 23.6619 38.6572 21.3191 38.6572C18.9709 38.6572 16.699 38.1995 14.5633 37.2951C12.4984 36.4234 10.6405 35.1703 9.04418 33.5739C7.44783 31.9776 6.19473 30.1197 5.323 28.0548C4.41859 25.9191 3.96093 23.6472 3.96093 21.299C3.96093 18.9508 4.41859 16.6843 5.323 14.5431C6.19473 12.4782 7.44783 10.6204 9.04418 9.02401C10.6405 7.42766 12.4984 6.17456 14.5633 5.30283C16.699 4.39842 18.9764 3.94077 21.3191 3.94077C23.6674 3.94077 25.9393 4.39842 28.075 5.30283C30.1399 6.17456 31.9978 7.42766 33.5941 9.02401C34.5203 9.95022 35.3267 10.9636 36.0186 12.0587C36.182 12.3202 36.4708 12.4782 36.7759 12.4782H39.925C40.3009 12.4782 40.5407 12.0859 40.3718 11.7536C36.8195 4.68718 29.6169 0.0942826 21.5752 0.00166187C9.80149 -0.145442 0.0218303 9.49256 3.72216e-05 21.2554C-0.0217559 33.04 9.52907 42.6017 21.3137 42.6017C29.4589 42.6017 36.7814 37.9925 40.3718 30.8444C40.5407 30.512 40.2955 30.1197 39.925 30.1197Z" fill="#FF5C00"/>
</svg>
