<svg width="48" height="46" viewBox="0 0 48 46" fill="none" xmlns="http://www.w3.org/2000/svg">
<path d="M4.8 26.3976L26.4 26.4C27.611 26.3996 28.7774 26.857 29.6653 27.6804C30.5533 28.5038 31.0972 29.6324 31.188 30.84L31.2 31.2V34.8C31.1976 43.2 22.2816 45.6 15.6 45.6C9.0672 45.6 0.396 43.3056 0.0120003 35.352L0 34.8V31.1976C0 28.668 1.9584 26.5944 4.44 26.4096L4.8 26.4V26.3976ZM31.728 26.4H43.2C45.7296 26.4 47.8032 28.3584 47.9856 30.84L48 31.2V33.6C47.9976 40.9488 41.1408 43.2 36 43.2C34.2587 43.2041 32.527 42.9435 30.864 42.4272C31.6704 41.5008 32.3208 40.4424 32.7888 39.2424C33.843 39.478 34.9198 39.5979 36 39.6L36.6408 39.5856C39.0048 39.4824 44.0472 38.7144 44.3832 34.092L44.4 33.6V31.2C44.3996 30.9193 44.301 30.6475 44.1213 30.4318C43.9416 30.2162 43.6921 30.0702 43.416 30.0192L43.2 30H33.4776C33.2791 28.8251 32.788 27.7191 32.0496 26.784L31.728 26.4H43.2H31.728ZM4.8 29.9976L4.56 30.0216C4.32965 30.0695 4.11801 30.1829 3.9504 30.348C3.78523 30.5146 3.67186 30.7255 3.624 30.9552L3.6 31.1976V34.8C3.6 37.2216 4.68 38.9328 7.0008 40.1808C8.9832 41.2488 11.808 41.8944 14.8392 41.988L15.6 42L16.3608 41.988C19.392 41.8944 22.2144 41.2488 24.1992 40.1808C26.3736 39.0096 27.4608 37.4328 27.588 35.244L27.6 34.7976V31.2C27.5996 30.9193 27.501 30.6475 27.3213 30.4318C27.1416 30.2162 26.8921 30.0702 26.616 30.0192L26.4 30L4.8 29.9976ZM15.6 0C18.4643 0 21.2114 1.13785 23.2368 3.16325C25.2621 5.18864 26.4 7.93566 26.4 10.8C26.4 13.6643 25.2621 16.4114 23.2368 18.4368C21.2114 20.4621 18.4643 21.6 15.6 21.6C12.7357 21.6 9.98864 20.4621 7.96325 18.4368C5.93785 16.4114 4.8 13.6643 4.8 10.8C4.8 7.93566 5.93785 5.18864 7.96325 3.16325C9.98864 1.13785 12.7357 0 15.6 0ZM37.2 4.8C39.4278 4.8 41.5644 5.685 43.1397 7.2603C44.715 8.83561 45.6 10.9722 45.6 13.2C45.6 15.4278 44.715 17.5644 43.1397 19.1397C41.5644 20.715 39.4278 21.6 37.2 21.6C34.9722 21.6 32.8356 20.715 31.2603 19.1397C29.685 17.5644 28.8 15.4278 28.8 13.2C28.8 10.9722 29.685 8.83561 31.2603 7.2603C32.8356 5.685 34.9722 4.8 37.2 4.8ZM15.6 3.6C11.6304 3.6 8.4 6.8304 8.4 10.8C8.4 14.7696 11.6304 18 15.6 18C19.5696 18 22.8 14.7696 22.8 10.8C22.8 6.8304 19.5696 3.6 15.6 3.6ZM37.2 8.4C34.5528 8.4 32.4 10.5528 32.4 13.2C32.4 15.8472 34.5528 18 37.2 18C39.8472 18 42 15.8472 42 13.2C42 10.5528 39.8472 8.4 37.2 8.4Z" fill="#FF5C00"/>
</svg>
