<svg width="48" height="48" viewBox="0 0 48 48" fill="none" xmlns="http://www.w3.org/2000/svg">
<path fill-rule="evenodd" clip-rule="evenodd" d="M34.1877 2.76714C35.0197 2.77042 35.8166 3.10237 36.4049 3.69065C36.9932 4.27894 37.3251 5.07589 37.3284 5.90785C37.3244 6.73932 36.9921 7.53556 36.4039 8.12325C35.8157 8.71094 35.0192 9.04251 34.1877 9.04578C33.3562 9.04214 32.5598 8.71022 31.9719 8.12227C31.3839 7.53432 31.052 6.73794 31.0484 5.90646C31.052 5.07474 31.3841 4.27815 31.9724 3.69016C32.5606 3.10218 33.3574 2.77042 34.1891 2.76714H34.1877ZM40.0956 5.90785C40.0956 2.65507 37.4391 0 34.1877 0C32.6221 0.00365537 31.1217 0.627305 30.0148 1.73449C28.9078 2.84167 28.2845 4.34224 28.2812 5.90785C28.2812 9.15924 30.9363 11.8129 34.1891 11.8129C37.4405 11.8129 40.0942 9.15924 40.0942 5.90646L40.0956 5.90785Z" fill="#FF5C00"/>
<path fill-rule="evenodd" clip-rule="evenodd" d="M43.0055 15.3518C43.9145 16.2594 44.6755 17.5863 44.6755 19.3475C44.6755 21.939 43.8288 23.6712 42.9267 24.7393C42.751 24.9483 42.561 25.1448 42.358 25.3273V17.2155H39.5909V44.3542C39.5887 44.5864 39.4954 44.8085 39.3311 44.9725C39.1667 45.1366 38.9445 45.2296 38.7123 45.2314C38.4803 45.2292 38.2585 45.1361 38.0944 44.9721C37.9304 44.808 37.8373 44.5862 37.8351 44.3542V31.6627H30.5437V44.3542C30.5415 44.5862 30.4484 44.808 30.2844 44.9721C30.1204 45.1361 29.8985 45.2292 29.6665 45.2314C29.4346 45.2292 29.2127 45.1361 29.0487 44.9721C28.8846 44.808 28.7915 44.5862 28.7893 44.3542V15.8319H16.0979C15.8654 15.8301 15.643 15.7369 15.4786 15.5726C15.3142 15.4082 15.2211 15.1858 15.2193 14.9533C15.2215 14.7211 15.3148 14.499 15.4791 14.335C15.6434 14.1709 15.8656 14.0779 16.0979 14.0761H40.9745L40.9814 14.0775C41.0229 14.0858 41.2539 14.1329 41.651 14.3404C42.0633 14.5562 42.5476 14.8938 43.0055 15.3504V15.3518ZM42.358 28.6022C42.5752 28.5082 42.7883 28.3975 42.9931 28.2785C43.7694 27.8136 44.4617 27.2209 45.0408 26.5255C46.369 24.9538 47.4426 22.5865 47.4426 19.3475C47.4426 16.7146 46.2832 14.7154 44.9605 13.394C44.3645 12.7943 43.6823 12.2869 42.9364 11.8887C42.3221 11.5677 41.6137 11.3076 40.9745 11.3076H16.0979C15.1313 11.3094 14.2048 11.6943 13.5215 12.3779C12.8381 13.0615 12.4536 13.9881 12.4521 14.9547C12.454 15.921 12.8387 16.8473 13.522 17.5306C14.2053 18.2139 15.1315 18.5986 16.0979 18.6004H26.0208V44.3556C26.023 45.3217 26.4079 46.2476 27.0911 46.9306C27.7744 47.6136 28.7004 47.9981 29.6665 47.9999C30.6326 47.9981 31.5587 47.6136 32.2419 46.9306C32.9252 46.2476 33.31 45.3217 33.3122 44.3556V34.4312H35.068V44.3556C35.0702 45.3214 35.4548 46.2471 36.1378 46.9301C36.8208 47.6131 37.7465 47.9977 38.7123 47.9999C39.6784 47.9981 40.6044 47.6136 41.2877 46.9306C41.971 46.2476 42.3558 45.3217 42.358 44.3556V28.6022Z" fill="#FF5C00"/>
<path fill-rule="evenodd" clip-rule="evenodd" d="M0 35.2811C0 34.1802 0.437306 33.1245 1.21572 32.3461C1.99412 31.5677 3.04987 31.1304 4.15071 31.1304H19.37C20.4708 31.1304 21.5266 31.5677 22.305 32.3461C23.0834 33.1245 23.5207 34.1802 23.5207 35.2811V43.5825C23.5207 44.6833 23.0834 45.7391 22.305 46.5175C21.5266 47.2959 20.4708 47.7332 19.37 47.7332H4.15071C3.04987 47.7332 1.99412 47.2959 1.21572 46.5175C0.437306 45.7391 0 44.6833 0 43.5825V35.2811ZM4.15071 33.8975C3.78377 33.8975 3.43185 34.0433 3.17238 34.3027C2.91291 34.5622 2.76714 34.9141 2.76714 35.2811V43.5825C2.76714 43.9494 2.91291 44.3014 3.17238 44.5608C3.43185 44.8203 3.78377 44.9661 4.15071 44.9661H19.37C19.7369 44.9661 20.0888 44.8203 20.3483 44.5608C20.6078 44.3014 20.7536 43.9494 20.7536 43.5825V35.2811C20.7536 34.9141 20.6078 34.5622 20.3483 34.3027C20.0888 34.0433 19.7369 33.8975 19.37 33.8975H4.15071Z" fill="#FF5C00"/>
<path fill-rule="evenodd" clip-rule="evenodd" d="M5.53418 44.966V33.8975H8.30132V44.966H5.53418Z" fill="#FF5C00"/>
<path fill-rule="evenodd" clip-rule="evenodd" d="M15.2197 44.966V33.8975H17.9869V44.966H15.2197Z" fill="#FF5C00"/>
<path fill-rule="evenodd" clip-rule="evenodd" d="M6.91699 29.055C6.91699 28.3211 7.20853 27.6173 7.72747 27.0983C8.24641 26.5794 8.95024 26.2878 9.68413 26.2878H13.8348C14.5687 26.2878 15.2726 26.5794 15.7915 27.0983C16.3104 27.6173 16.602 28.3211 16.602 29.055V32.5139H13.8348V29.055H9.68413V32.5139H6.91699V29.055Z" fill="#FF5C00"/>
</svg>
