<svg width="24" height="23" viewBox="0 0 24 23" fill="none" xmlns="http://www.w3.org/2000/svg">
<path d="M22.6873 3H20.2499V4.49998H22.4998V20.9997H1.50017V4.49998H3.75013V3H1.31267C1.13735 3.00293 0.964328 3.04037 0.80348 3.11018C0.642632 3.17999 0.497113 3.2808 0.375233 3.40686C0.253353 3.53292 0.157501 3.68175 0.0931506 3.84486C0.0288004 4.00797 -0.00278693 4.18216 0.000192785 4.35748V21.1422C-0.00278693 21.3175 0.0288004 21.4917 0.0931506 21.6548C0.157501 21.8179 0.253353 21.9668 0.375233 22.0928C0.497113 22.2189 0.642632 22.3197 0.80348 22.3895C0.964328 22.4593 1.13735 22.4968 1.31267 22.4997H22.6873C22.8626 22.4968 23.0357 22.4593 23.1965 22.3895C23.3574 22.3197 23.5029 22.2189 23.6248 22.0928C23.7466 21.9668 23.8425 21.8179 23.9068 21.6548C23.9712 21.4917 24.0028 21.3175 23.9998 21.1422V4.35748C24.0028 4.18216 23.9712 4.00797 23.9068 3.84486C23.8425 3.68175 23.7466 3.53292 23.6248 3.40686C23.5029 3.2808 23.3574 3.17999 23.1965 3.11018C23.0357 3.04037 22.8626 3.00293 22.6873 3Z" fill="white"/>
<path d="M4.5 9H5.99998V10.5H4.5V9Z" fill="white"/>
<path d="M9 9H10.5V10.5H9V9Z" fill="white"/>
<path d="M13.5 9H15V10.5H13.5V9Z" fill="white"/>
<path d="M18 9H19.5V10.5H18V9Z" fill="white"/>
<path d="M4.5 12.7495H5.99998V14.2495H4.5V12.7495Z" fill="white"/>
<path d="M9 12.7495H10.5V14.2495H9V12.7495Z" fill="white"/>
<path d="M13.5 12.7495H15V14.2495H13.5V12.7495Z" fill="white"/>
<path d="M18 12.7495H19.5V14.2495H18V12.7495Z" fill="white"/>
<path d="M4.5 16.5H5.99998V18H4.5V16.5Z" fill="white"/>
<path d="M9 16.5H10.5V18H9V16.5Z" fill="white"/>
<path d="M13.5 16.5H15V18H13.5V16.5Z" fill="white"/>
<path d="M18 16.5H19.5V18H18V16.5Z" fill="white"/>
<path d="M5.99999 5.9999C6.1989 5.9999 6.38966 5.92089 6.53031 5.78024C6.67096 5.63959 6.74998 5.44882 6.74998 5.24992V0.749988C6.74998 0.551079 6.67096 0.360316 6.53031 0.219666C6.38966 0.0790163 6.1989 0 5.99999 0C5.80108 0 5.61032 0.0790163 5.46967 0.219666C5.32902 0.360316 5.25 0.551079 5.25 0.749988V5.24992C5.25 5.44882 5.32902 5.63959 5.46967 5.78024C5.61032 5.92089 5.80108 5.9999 5.99999 5.9999Z" fill="white"/>
<path d="M18 5.9999C18.1989 5.9999 18.3897 5.92089 18.5303 5.78024C18.671 5.63959 18.75 5.44882 18.75 5.24992V0.749988C18.75 0.551079 18.671 0.360316 18.5303 0.219666C18.3897 0.0790163 18.1989 0 18 0C17.8011 0 17.6103 0.0790163 17.4697 0.219666C17.329 0.360316 17.25 0.551079 17.25 0.749988V5.24992C17.25 5.44882 17.329 5.63959 17.4697 5.78024C17.6103 5.92089 17.8011 5.9999 18 5.9999Z" fill="white"/>
<path d="M8.25 3H15.7499V4.49998H8.25V3Z" fill="white"/>
</svg>
