<svg width="18" height="16" viewBox="0 0 18 16" fill="none" xmlns="http://www.w3.org/2000/svg">
<path d="M4.275 3.0497e-09H13.725C14.3553 -3.12653e-05 14.9618 0.240383 15.4209 0.672204C15.8799 1.10402 16.157 1.69472 16.1955 2.3238L16.2 2.475V5.4936C16.6906 5.63286 17.1262 5.92016 17.4474 6.31626C17.7686 6.71235 17.9597 7.19794 17.9946 7.7067L18 7.875V14.625C17.9999 14.796 17.935 14.9606 17.8182 15.0856C17.7015 15.2106 17.5416 15.2866 17.371 15.2982C17.2004 15.3099 17.0317 15.2563 16.899 15.1484C16.7664 15.0405 16.6796 14.8862 16.6563 14.7168L16.65 14.625V12.6H1.35V14.625C1.34999 14.7881 1.29092 14.9457 1.18371 15.0686C1.0765 15.1916 0.928398 15.2715 0.7668 15.2937L0.675 15.3C0.511886 15.3 0.354292 15.2409 0.231362 15.1337C0.108433 15.0265 0.0284835 14.8784 0.00629997 14.7168L0 14.625V7.875C0 6.7419 0.7614 5.787 1.8 5.4927V2.475C1.79997 1.84474 2.04038 1.23821 2.4722 0.779132C2.90402 0.320051 3.49472 0.0430031 4.1238 0.00450011L4.275 3.0497e-09ZM15.525 6.75H2.475C2.19649 6.74987 1.92783 6.85306 1.72101 7.0396C1.51419 7.22613 1.38392 7.48275 1.3554 7.7598L1.35 7.875V11.25H16.65V7.875C16.6499 7.59664 16.5466 7.32821 16.3601 7.12158C16.1736 6.91495 15.9171 6.7848 15.6402 6.7563L15.525 6.75ZM13.725 1.35H4.275C3.99649 1.34987 3.72783 1.45306 3.52101 1.6396C3.31419 1.82613 3.18392 2.08275 3.1554 2.3598L3.15 2.475V5.4H4.5C4.5 5.16131 4.59482 4.93239 4.7636 4.7636C4.93239 4.59482 5.1613 4.5 5.4 4.5H7.2C7.42044 4.50003 7.6332 4.58096 7.79794 4.72744C7.96267 4.87393 8.06791 5.07577 8.0937 5.2947L8.1 5.4H9.9C9.9 5.16131 9.99482 4.93239 10.1636 4.7636C10.3324 4.59482 10.5613 4.5 10.8 4.5H12.6C12.8204 4.50003 13.0332 4.58096 13.1979 4.72744C13.3627 4.87393 13.4679 5.07577 13.4937 5.2947L13.5 5.4H14.85V2.475C14.8501 2.19649 14.7469 1.92783 14.5604 1.72101C14.3739 1.51419 14.1172 1.38392 13.8402 1.3554L13.725 1.35Z" fill="#FF5C00"/>
</svg>
