<svg width="20" height="18" viewBox="0 0 20 18" fill="none" xmlns="http://www.w3.org/2000/svg">
<path d="M18.1 1H1.9C1.40294 1 1 1.40294 1 1.9V13.6C1 14.0971 1.40294 14.5 1.9 14.5H18.1C18.5971 14.5 19 14.0971 19 13.6V1.9C19 1.40294 18.5971 1 18.1 1Z" stroke="#FF5C00"/>
<path d="M16.3 5.05005H14.5" stroke="#FF5C00" stroke-linecap="round" stroke-linejoin="round"/>
<path d="M16.3 7.75H14.5" stroke="#FF5C00" stroke-linecap="round" stroke-linejoin="round"/>
<path d="M3.7002 5.05005H11.3502V10.45H3.7002V5.05005Z" stroke="#FF5C00" stroke-linecap="round" stroke-linejoin="round"/>
<path d="M15.4 11.35C15.8971 11.35 16.3 10.9471 16.3 10.45C16.3 9.95299 15.8971 9.55005 15.4 9.55005C14.9029 9.55005 14.5 9.95299 14.5 10.45C14.5 10.9471 14.9029 11.35 15.4 11.35Z" fill="#FF5C00"/>
<path d="M4.59961 14.5V17.2" stroke="#FF5C00" stroke-linecap="round" stroke-linejoin="round"/>
<path d="M15.4004 14.5V17.2" stroke="#FF5C00" stroke-linecap="round" stroke-linejoin="round"/>
</svg>
