<svg width="18" height="13" viewBox="0 0 18 13" fill="none" xmlns="http://www.w3.org/2000/svg">
<path d="M17.8242 3.72244C17.8843 3.66408 17.931 3.59339 17.9612 3.51524C17.9913 3.43709 18.0042 3.35333 17.9988 3.26974C17.9935 3.18614 17.9701 3.1047 17.9302 3.03102C17.8904 2.95733 17.8351 2.89316 17.768 2.84292C15.2203 0.990609 12.1502 -0.00485924 9.00034 1.78353e-05C5.72484 1.78353e-05 2.69433 1.05401 0.232628 2.84292C0.165522 2.89307 0.110086 2.95717 0.0701382 3.03081C0.0301904 3.10444 0.00668064 3.18586 0.0012287 3.26946C-0.00422324 3.35306 0.00851221 3.43684 0.0385576 3.51504C0.0686031 3.59324 0.115244 3.664 0.175268 3.72244C0.279705 3.82531 0.417259 3.88777 0.56344 3.89871C0.709621 3.90965 0.854941 3.86836 0.973527 3.78219C3.30992 2.09603 6.11905 1.1906 9.00034 1.19502C11.9962 1.19502 14.7686 2.15341 17.026 3.781C17.2709 3.95786 17.6115 3.93635 17.8242 3.72244Z" fill="#FF5C00"/>
<path d="M15.249 6.29906C15.3105 6.23965 15.3581 6.16727 15.3882 6.08718C15.4183 6.00708 15.4302 5.92129 15.423 5.83603C15.4158 5.75077 15.3896 5.66819 15.3465 5.59429C15.3034 5.52038 15.2444 5.45702 15.1737 5.40879C13.3362 4.21521 11.1914 3.58164 9.00031 3.58522C6.72384 3.58522 4.60271 4.25442 2.82695 5.40879C2.75591 5.45673 2.69651 5.51999 2.65313 5.5939C2.60975 5.66781 2.58348 5.75051 2.57626 5.83591C2.56904 5.92131 2.58104 6.00724 2.6114 6.08739C2.64175 6.16754 2.68968 6.23987 2.75166 6.29906C2.85348 6.39844 2.98605 6.46025 3.12763 6.47437C3.2692 6.48848 3.41137 6.45406 3.5308 6.37674C5.1632 5.33118 7.06178 4.777 9.00031 4.78022C10.9384 4.77723 12.8366 5.3314 14.4686 6.37674C14.7148 6.53448 15.0422 6.5058 15.249 6.29906ZM12.6403 8.90775C12.9103 8.63768 12.8614 8.18477 12.5208 8.0115C11.4303 7.4566 10.2238 7.16828 9.00031 7.17022C7.73361 7.17022 6.53622 7.47375 5.47984 8.0115C5.13927 8.18477 5.09027 8.63768 5.36034 8.90775L5.37827 8.92567C5.56947 9.11687 5.86463 9.15272 6.10841 9.03322C7.00852 8.59208 7.99792 8.36354 9.00031 8.36522C10.0376 8.36522 11.0199 8.60541 11.8922 9.03442C12.1348 9.15392 12.43 9.11807 12.6212 8.92567L12.6403 8.90775ZM10.267 11.281C10.5012 11.0468 10.5036 10.6596 10.2192 10.4923C9.85053 10.2729 9.42936 10.1573 9.00031 10.1577C8.57127 10.1573 8.15009 10.2729 7.78141 10.4923C7.497 10.6596 7.49939 11.0468 7.73361 11.281L8.57728 12.1247C8.68933 12.2367 8.84128 12.2996 8.99971 12.2996C9.15815 12.2996 9.3101 12.2367 9.42215 12.1247L10.267 11.2798V11.281Z" fill="#FF5C00"/>
</svg>
