<svg width="18" height="18" viewBox="0 0 18 18" fill="none" xmlns="http://www.w3.org/2000/svg">
<path d="M16.7584 9.92008H2.39405V3.18681C2.39336 2.93324 2.44297 2.68205 2.54001 2.44778C2.63705 2.21351 2.77959 2.00082 2.95938 1.82201L2.97435 1.80705C3.25612 1.52569 3.61789 1.33818 4.01023 1.27015C4.40257 1.20211 4.80635 1.25686 5.1664 1.42692C4.82636 1.99229 4.68502 2.65508 4.76485 3.30998C4.84468 3.96488 5.14109 4.57432 5.60698 5.04145L6.01662 5.45109L5.26261 6.20515L6.10898 7.05152L6.863 6.2975L11.041 2.11962L11.795 1.36561L10.9486 0.519199L10.1945 1.27321L9.78486 0.863568C9.29441 0.374482 8.64789 0.0729918 7.95797 0.0116347C7.26805 -0.0497224 6.57847 0.132944 6.00941 0.527802C5.40933 0.148837 4.6982 -0.0147657 3.99285 0.0638713C3.28749 0.142508 2.62986 0.458708 2.12797 0.960527L2.11301 0.97549C1.8217 1.26521 1.59075 1.60982 1.43352 1.9894C1.27629 2.36897 1.19591 2.77596 1.19703 3.18681V9.92008H0V11.1171H1.19703V12.2655C1.197 12.362 1.21256 12.4579 1.24311 12.5494L2.35664 15.8898C2.41607 16.0687 2.53033 16.2242 2.68321 16.3344C2.83609 16.4446 3.0198 16.5039 3.20825 16.5037H3.6908L3.25441 18H4.5013L4.93773 16.5037H12.7221L13.171 18H14.4204L13.9715 16.5037H14.747C14.9355 16.5039 15.1192 16.4447 15.2721 16.3345C15.425 16.2243 15.5393 16.0687 15.5987 15.8898L16.7122 12.5494C16.7428 12.4579 16.7583 12.362 16.7584 12.2655V11.1171H17.9554V9.92008H16.7584ZM6.45346 1.70998C6.78324 1.38092 7.23009 1.19611 7.69596 1.19611C8.16183 1.19611 8.60867 1.38092 8.93845 1.70998L9.34802 2.11962L6.86311 4.60454L6.45346 4.19497C6.12442 3.86518 5.93963 3.41834 5.93963 2.95247C5.93963 2.48661 6.12442 2.03977 6.45346 1.70998ZM15.5613 12.2169L14.5314 15.3067H3.42394L2.39405 12.2169V11.1171H15.5613V12.2169Z" fill="#FF5C00"/>
</svg>
