<svg width="18" height="16" viewBox="0 0 18 16" fill="none" xmlns="http://www.w3.org/2000/svg">
<path d="M2.1375 0C1.5706 0 1.02692 0.2252 0.626059 0.626059C0.2252 1.02692 0 1.5706 0 2.1375V10.4625C0 11.0294 0.2252 11.5731 0.626059 11.9739C1.02692 12.3748 1.5706 12.6 2.1375 12.6H15.8625C16.4294 12.6 16.9731 12.3748 17.3739 11.9739C17.7748 11.5731 18 11.0294 18 10.4625V2.1375C18 1.5706 17.7748 1.02692 17.3739 0.626059C16.9731 0.2252 16.4294 0 15.8625 0H2.1375ZM1.125 2.1375C1.125 1.86897 1.23167 1.61144 1.42155 1.42155C1.61144 1.23167 1.86897 1.125 2.1375 1.125H15.8625C16.131 1.125 16.3886 1.23167 16.5784 1.42155C16.7683 1.61144 16.875 1.86897 16.875 2.1375V10.4625C16.875 10.731 16.7683 10.9886 16.5784 11.1784C16.3886 11.3683 16.131 11.475 15.8625 11.475H2.1375C1.86897 11.475 1.61144 11.3683 1.42155 11.1784C1.23167 10.9886 1.125 10.731 1.125 10.4625V2.1375Z" fill="#FF5C00"/>
<path d="M3.2627 14.175C3.11351 14.175 2.97044 14.2343 2.86495 14.3398C2.75946 14.4453 2.7002 14.5884 2.7002 14.7375C2.7002 14.8867 2.75946 15.0298 2.86495 15.1353C2.97044 15.2408 3.11351 15.3 3.2627 15.3H14.7377C14.8869 15.3 15.03 15.2408 15.1354 15.1353C15.2409 15.0298 15.3002 14.8867 15.3002 14.7375C15.3002 14.5884 15.2409 14.4453 15.1354 14.3398C15.03 14.2343 14.8869 14.175 14.7377 14.175H3.2627Z" fill="#FF5C00"/>
</svg>
