<svg width="15" height="18" viewBox="0 0 15 18" fill="none" xmlns="http://www.w3.org/2000/svg">
<path d="M3.17646 4.05885V0.529449C3.17646 0.389041 3.23224 0.254383 3.33152 0.155099C3.43081 0.0558156 3.56547 3.86172e-05 3.70587 3.86172e-05C3.84628 3.86172e-05 3.98094 0.0558156 4.08022 0.155099C4.17951 0.254383 4.23528 0.389041 4.23528 0.529449V4.05885C4.23528 4.19926 4.17951 4.33392 4.08022 4.4332C3.98094 4.53249 3.84628 4.58826 3.70587 4.58826C3.56547 4.58826 3.43081 4.53249 3.33152 4.4332C3.23224 4.33392 3.17646 4.19926 3.17646 4.05885ZM6.69863 0.442449C6.67411 0.305306 6.59651 0.183359 6.48266 0.10305C6.36882 0.022741 6.22791 -0.00945593 6.09048 0.0134405C5.95306 0.0363369 5.8302 0.112481 5.74854 0.225362C5.66689 0.338243 5.63302 0.478762 5.65428 0.616449L6.35257 4.80665C6.34123 5.50111 6.0574 6.16329 5.56228 6.65039C5.06716 7.13749 4.40043 7.41047 3.70587 7.41047C3.01132 7.41047 2.34459 7.13749 1.84947 6.65039C1.35435 6.16329 1.07052 5.50111 1.05917 4.80665L1.75747 0.616449C1.77873 0.478762 1.74486 0.338243 1.6632 0.225362C1.58155 0.112481 1.45869 0.0363369 1.32126 0.0134405C1.18384 -0.00945593 1.04293 0.022741 0.929085 0.10305C0.815241 0.183359 0.737643 0.305306 0.713116 0.442449L0.00723534 4.67773C0.00243814 4.70649 1.81288e-05 4.73558 0 4.76473C0.00119213 5.65549 0.322736 6.5161 0.905915 7.18941C1.48909 7.86273 2.295 8.30382 3.17646 8.43214V17.4706C3.17646 17.611 3.23224 17.7457 3.33152 17.8449C3.43081 17.9442 3.56547 18 3.70587 18C3.84628 18 3.98094 17.9442 4.08022 17.8449C4.17951 17.7457 4.23528 17.611 4.23528 17.4706V8.43214C5.11675 8.30382 5.92265 7.86273 6.50583 7.18941C7.08901 6.5161 7.41056 5.65549 7.41175 4.76473C7.41173 4.73558 7.40931 4.70649 7.40451 4.67773L6.69863 0.442449ZM14.8235 0.529449V17.4706C14.8235 17.611 14.7677 17.7457 14.6684 17.8449C14.5692 17.9442 14.4345 18 14.2941 18C14.1537 18 14.019 17.9442 13.9197 17.8449C13.8205 17.7457 13.7647 17.611 13.7647 17.4706V12.353H9.35292C9.27863 12.353 9.20517 12.3373 9.13732 12.3071C9.06947 12.2768 9.00875 12.2326 8.9591 12.1774C8.90945 12.1221 8.87198 12.057 8.84914 11.9863C8.8263 11.9156 8.81859 11.8409 8.82651 11.7671C9.03796 10.0083 9.38286 8.26806 9.85824 6.56155C10.9026 2.87571 12.3341 0.678831 14.1131 0.0318915C14.1931 0.00280051 14.2789 -0.00658141 14.3633 0.00454085C14.4476 0.0156631 14.5281 0.0469618 14.5978 0.0957842C14.6675 0.144607 14.7244 0.209514 14.7637 0.285005C14.803 0.360496 14.8235 0.444346 14.8235 0.529449ZM13.7647 1.42115C11.4984 3.13238 10.3188 8.57261 9.95089 11.2941H13.7647V1.42115Z" fill="#FF5C00"/>
</svg>
