<svg width="15" height="20" viewBox="0 0 15 20" fill="none" xmlns="http://www.w3.org/2000/svg">
<path d="M5.50059 11.8H4.60059" stroke="#FF5C00" stroke-linecap="round" stroke-linejoin="round"/>
<path d="M5.50059 4.6001H4.60059" stroke="#FF5C00" stroke-linecap="round" stroke-linejoin="round"/>
<path d="M1 8.2H13.6M1 8.2V1.54C1 1.39678 1.05689 1.25943 1.15816 1.15816C1.25943 1.05689 1.39678 1 1.54 1H13.06C13.2032 1 13.3406 1.05689 13.4418 1.15816C13.5431 1.25943 13.6 1.39678 13.6 1.54V8.2H1ZM1 8.2V18.46C1 18.5309 1.01397 18.6011 1.04111 18.6666C1.06824 18.7322 1.10802 18.7917 1.15816 18.8418C1.20831 18.892 1.26784 18.9318 1.33335 18.9589C1.39887 18.986 1.46909 19 1.54 19H13.06C13.1309 19 13.2011 18.986 13.2666 18.9589C13.3322 18.9318 13.3917 18.892 13.4418 18.8418C13.492 18.7917 13.5318 18.7322 13.5589 18.6666C13.586 18.6011 13.6 18.5309 13.6 18.46V8.2H1Z" stroke="#FF5C00"/>
</svg>
