<svg width="20" height="17" viewBox="0 0 20 17" fill="none" xmlns="http://www.w3.org/2000/svg">
<path d="M9.66013 3.66895C6.41299 3.66895 3.67382 5.92415 2.81934 9.00671H16.5009C15.6469 5.92415 12.9073 3.66895 9.66013 3.66895V3.66895Z" stroke="#FF5C00" stroke-linecap="round" stroke-linejoin="round"/>
<path d="M2.54341 11.0496C2.54341 13.0148 3.28403 14.8007 4.49214 16.1236H14.8287C16.0368 14.8007 16.7775 13.0148 16.7775 11.0496C16.7775 10.3406 16.6809 9.65558 16.5017 9.00659H2.81875C2.63949 9.65558 2.54297 10.341 2.54297 11.0496H2.54341Z" stroke="#FF5C00" stroke-linecap="round" stroke-linejoin="round"/>
<path d="M11.4394 3.66888V2.77926C11.4394 2.30737 11.2519 1.85481 10.9182 1.52113C10.5846 1.18746 10.132 1 9.66012 1C9.18823 1 8.73567 1.18746 8.40199 1.52113C8.06832 1.85481 7.88086 2.30737 7.88086 2.77926V3.66888" stroke="#FF5C00" stroke-linecap="round" stroke-linejoin="round"/>
<path d="M2.54251 10.3412C2.54251 10.3412 1.65956 10.283 1.20807 9.22919C0.540852 7.67234 1.65289 6.78271 2.0977 5.44827C2.4362 4.4332 1.74496 3.67524 1.39489 3.37099C1.2828 3.27313 1.20807 3.13524 1.20807 2.98622V2.71133C1.20807 2.49382 1.36554 2.30966 1.58305 2.3021C2.04343 2.28431 2.83743 2.33279 3.43214 2.77939C4.32177 3.44661 4.76658 5.44827 4.76658 5.44827" stroke="#FF5C00" stroke-linecap="round" stroke-linejoin="round"/>
<path d="M3.43262 16.1238H15.8874" stroke="#FF5C00" stroke-linecap="round" stroke-linejoin="round"/>
<path d="M16.7763 9.00673C17.1773 9.00662 17.5707 8.89812 17.9151 8.69271C18.2594 8.48731 18.5418 8.19264 18.7324 7.83988C18.923 7.48713 19.0147 7.08941 18.9978 6.68882C18.9809 6.28822 18.856 5.89965 18.6363 5.56423C18.4167 5.2288 18.1104 4.95899 17.75 4.78335C17.3895 4.60771 16.9883 4.53277 16.5888 4.56646C16.1893 4.60015 15.8063 4.74123 15.4803 4.97475C15.1544 5.20827 14.8977 5.52556 14.7373 5.89304" stroke="#FF5C00" stroke-linecap="round" stroke-linejoin="round"/>
</svg>
