<svg width="16" height="16" viewBox="0 0 16 16" fill="none" xmlns="http://www.w3.org/2000/svg">
<path d="M6.5 1.025C7.58307 1.02401 8.64209 1.34427 9.54311 1.94527C10.4441 2.54627 11.1467 3.401 11.5618 4.40134C11.977 5.40168 12.0861 6.50268 11.8754 7.56505C11.6647 8.62743 11.1437 9.60345 10.3782 10.3696C9.61269 11.1358 8.63715 11.6578 7.57496 11.8694C6.51278 12.0811 5.41168 11.973 4.41097 11.5587C3.41025 11.1445 2.55488 10.4427 1.95306 9.54227C1.35123 8.6418 1.03 7.58307 1.03 6.5C1.03657 5.05083 1.61482 3.66281 2.63908 2.63761C3.66334 1.61241 5.05084 1.03289 6.5 1.025ZM6.5 0C5.21442 0 3.95772 0.381218 2.8888 1.09545C1.81988 1.80968 0.986756 2.82484 0.494786 4.01256C0.00281644 5.20028 -0.125905 6.50721 0.124899 7.76809C0.375703 9.02896 0.994767 10.1872 1.90381 11.0962C2.81285 12.0052 3.97104 12.6243 5.23192 12.8751C6.49279 13.1259 7.79973 12.9972 8.98744 12.5052C10.1752 12.0132 11.1903 11.1801 11.9046 10.1112C12.6188 9.04229 13 7.78558 13 6.5C13 4.77609 12.3152 3.12279 11.0962 1.90381C9.87721 0.684819 8.22391 0 6.5 0Z" fill="white"/>
<path d="M15.8345 15.1451L12.1495 11.4351L11.4395 12.1401L15.1245 15.8501C15.1707 15.8967 15.2258 15.9337 15.2864 15.9591C15.347 15.9844 15.412 15.9976 15.4777 15.9978C15.5434 15.9981 15.6085 15.9854 15.6693 15.9604C15.7301 15.9355 15.7853 15.8988 15.832 15.8526C15.8786 15.8063 15.9156 15.7512 15.941 15.6906C15.9663 15.63 15.9795 15.565 15.9797 15.4993C15.98 15.4336 15.9673 15.3685 15.9423 15.3077C15.9174 15.247 15.8807 15.1917 15.8345 15.1451Z" fill="white"/>
</svg>
