<svg width="21" height="21" viewBox="0 0 21 21" fill="none" xmlns="http://www.w3.org/2000/svg">
<path d="M16.2382 20.535C16.0338 20.5344 15.8301 20.512 15.6304 20.4681C11.8298 19.6819 8.32834 17.8385 5.52915 15.1501C2.78968 12.4557 0.889716 9.02521 0.0591278 5.27364C-0.0388091 4.80608 -0.0147715 4.32118 0.128928 3.8656C0.272627 3.41002 0.531152 2.99909 0.879631 2.67234L3.31075 0.332385C3.43492 0.214954 3.58246 0.125028 3.74374 0.0684761C3.90502 0.0119238 4.07641 -0.00998356 4.24673 0.00418374C4.42333 0.0226073 4.59375 0.0794958 4.746 0.170848C4.89826 0.262201 5.02865 0.385799 5.12801 0.532952L8.16691 5.02445C8.28087 5.19872 8.33588 5.40498 8.32385 5.61286C8.31181 5.82074 8.23337 6.01927 8.10006 6.17923L6.57453 8.00257C7.1821 9.34725 8.04253 10.5626 9.10897 11.5824C10.1685 12.6392 11.4209 13.483 12.7982 14.0682L14.6884 12.567C14.8471 12.4415 15.0403 12.3673 15.2423 12.3543C15.4442 12.3413 15.6453 12.39 15.8189 12.4941L20.4076 15.46C20.5651 15.554 20.6992 15.6825 20.8 15.8357C20.9008 15.9889 20.9656 16.163 20.9896 16.3448C21.0135 16.5267 20.9961 16.7116 20.9384 16.8857C20.8808 17.0598 20.7845 17.2186 20.6568 17.3502L18.2864 19.6963C18.0172 19.9642 17.6976 20.1762 17.3461 20.3202C16.9946 20.4641 16.6181 20.5371 16.2382 20.535ZM4.14949 1.20759L1.71837 3.54754C1.52233 3.73021 1.37721 3.96076 1.29729 4.21651C1.21736 4.47227 1.20539 4.74442 1.26253 5.00621C2.03485 8.52656 3.81017 11.7479 6.37396 14.2809C9.0082 16.8102 12.3032 18.5441 15.8796 19.283C16.1503 19.3396 16.4309 19.3281 16.6961 19.2496C16.9612 19.1711 17.2028 19.028 17.3991 18.8332L19.7694 16.4872L15.3387 13.6245L13.3087 15.2412C13.231 15.3027 13.1394 15.3443 13.042 15.3623C12.9445 15.3803 12.8441 15.3742 12.7496 15.3445C11.064 14.7235 9.53652 13.7377 8.27631 12.4576C6.97284 11.2403 5.96105 9.74447 5.31642 8.08158C5.28915 7.98091 5.28825 7.87491 5.31379 7.77379C5.33934 7.67267 5.39048 7.57983 5.46229 7.50419L7.1033 5.54106L4.14949 1.20759Z" fill="#7E7E7E"/>
</svg>
