<svg width="149" height="16" viewBox="0 0 149 16" fill="none" xmlns="http://www.w3.org/2000/svg">
<g clip-path="url(#clip0)">
<path d="M10.1086 1.59555C9.06602 0.683868 7.70611 0.228027 5.89291 0.228027H0V15.7722H3.08245V10.1198H5.89291C7.66078 10.1198 9.06602 9.66393 10.1086 8.75224C11.1512 7.84056 11.6498 6.65538 11.6498 5.1511C11.6498 3.64683 11.1512 2.50723 10.1086 1.59555ZM7.88743 7.02005C7.43413 7.47589 6.79951 7.7494 5.93824 7.7494H3.08245V2.64398H5.89291C6.75418 2.64398 7.43413 2.8719 7.8421 3.37333C8.25008 3.87475 8.52206 4.46734 8.52206 5.24227C8.56739 5.92603 8.34074 6.56421 7.88743 7.02005Z" fill="white"/>
<path d="M10.1086 1.59555C9.06602 0.683868 7.70611 0.228027 5.89291 0.228027H0V15.7722H3.08245V10.1198H5.89291C7.66078 10.1198 9.06602 9.66393 10.1086 8.75224C11.1512 7.84056 11.6498 6.65538 11.6498 5.1511C11.6498 3.64683 11.1512 2.50723 10.1086 1.59555ZM7.88743 7.02005C7.43413 7.47589 6.79951 7.7494 5.93824 7.7494H3.08245V2.64398H5.89291C6.75418 2.64398 7.43413 2.8719 7.8421 3.37333C8.25008 3.87475 8.52206 4.46734 8.52206 5.24227C8.56739 5.92603 8.34074 6.56421 7.88743 7.02005Z" fill="white"/>
<path d="M16.9533 0.228027H13.8708V15.7722H23.8888V13.3562H16.9533V0.228027Z" fill="white"/>
<path d="M16.9533 0.228027H13.8708V15.7722H23.8888V13.3562H16.9533V0.228027Z" fill="white"/>
<path d="M29.0566 8.93458H34.8135V6.51863H29.0566V2.64398H35.8561V0.228027H25.9741V15.7722H35.8561V13.3562H29.0566V8.93458Z" fill="white"/>
<path d="M29.0566 8.93458H34.8135V6.51863H29.0566V2.64398H35.8561V0.228027H25.9741V15.7722H35.8561V13.3562H29.0566V8.93458Z" fill="white"/>
<path d="M47.4607 10.7124H47.4154L41.1598 0.228027H38.0774V15.7722H41.1598V5.28786H41.2052L47.4607 15.7722H50.5432V0.228027H47.4607V10.7124Z" fill="white"/>
<path d="M47.4607 10.7124H47.4154L41.1598 0.228027H38.0774V15.7722H41.1598V5.28786H41.2052L47.4607 15.7722H50.5432V0.228027H47.4607V10.7124Z" fill="white"/>
<path d="M51.9937 2.64398H56.3453V15.7722H59.4731V2.64398H63.8701V0.228027H51.9937V2.64398Z" fill="white"/>
<path d="M51.9937 2.64398H56.3453V15.7722H59.4731V2.64398H63.8701V0.228027H51.9937V2.64398Z" fill="white"/>
<path d="M71.2589 7.38472H71.2136L67.8138 0.228027H64.4141L69.6723 10.1653V15.7722H72.7548V10.3021L78.0584 0.228027H74.6587L71.2589 7.38472Z" fill="white"/>
<path d="M71.2589 7.38472H71.2136L67.8138 0.228027H64.4141L69.6723 10.1653V15.7722H72.7548V10.3021L78.0584 0.228027H74.6587L71.2589 7.38472Z" fill="white"/>
<path d="M85.7192 9.29915H89.8895V13.265C89.6176 13.7208 89.1643 14.0855 88.439 14.4046C87.7137 14.7236 86.8524 14.906 85.7645 14.906C84.3593 14.906 83.1807 14.4046 82.3194 13.3561C81.4581 12.3077 81.0048 10.9858 81.0048 9.34473V6.47293C81.0048 4.87749 81.4128 3.60114 82.2741 2.59829C83.1354 1.59544 84.2233 1.09402 85.6285 1.09402C86.9884 1.09402 88.031 1.45869 88.7563 2.14245C89.4816 2.82621 89.8442 3.73789 89.8442 4.78633H91.0228L91.0681 4.74074C91.0681 4.69516 91.0681 4.64957 91.0681 4.60399C91.0681 3.28205 90.5695 2.18803 89.6176 1.32194C88.6203 0.410256 87.3057 0 85.6285 0C83.906 0 82.4554 0.592593 81.3675 1.82336C80.2796 3.05413 79.7356 4.60399 79.7356 6.51852V9.39031C79.7356 11.3504 80.2796 12.9459 81.4581 14.1766C82.6367 15.4074 84.042 16.0456 85.8098 16.0456C87.2151 16.0456 88.3483 15.8177 89.3002 15.3162C90.2522 14.8148 90.8415 14.3134 91.2041 13.7208V8.20513H85.7645V9.29915H85.7192Z" fill="white"/>
<path d="M85.7192 9.29915H89.8895V13.265C89.6176 13.7208 89.1643 14.0855 88.439 14.4046C87.7137 14.7236 86.8524 14.906 85.7645 14.906C84.3593 14.906 83.1807 14.4046 82.3194 13.3561C81.4581 12.3077 81.0048 10.9858 81.0048 9.34473V6.47293C81.0048 4.87749 81.4128 3.60114 82.2741 2.59829C83.1354 1.59544 84.2233 1.09402 85.6285 1.09402C86.9884 1.09402 88.031 1.45869 88.7563 2.14245C89.4816 2.82621 89.8442 3.73789 89.8442 4.78633H91.0228L91.0681 4.74074C91.0681 4.69516 91.0681 4.64957 91.0681 4.60399C91.0681 3.28205 90.5695 2.18803 89.6176 1.32194C88.6203 0.410256 87.3057 0 85.6285 0C83.906 0 82.4554 0.592593 81.3675 1.82336C80.2796 3.05413 79.7356 4.60399 79.7356 6.51852V9.39031C79.7356 11.3504 80.2796 12.9459 81.4581 14.1766C82.6367 15.4074 84.042 16.0456 85.8098 16.0456C87.2151 16.0456 88.3483 15.8177 89.3002 15.3162C90.2522 14.8148 90.8415 14.3134 91.2041 13.7208V8.20513H85.7645V9.29915H85.7192Z" fill="white"/>
<path d="M105.392 13.2649V11.8062C105.392 10.8489 105.166 10.074 104.758 9.48142C104.35 8.88882 103.67 8.43298 102.673 8.20506C103.534 7.88597 104.214 7.43013 104.667 6.79196C105.12 6.15378 105.392 5.37885 105.392 4.55834C105.392 3.14523 104.939 2.0968 104.078 1.36745C103.217 0.63811 101.902 0.273438 100.27 0.273438H95.1025V15.8176H96.3718V8.75207H100.633C101.721 8.75207 102.582 9.02557 103.217 9.57258C103.851 10.1196 104.123 10.8945 104.123 11.8518V13.2649C104.123 13.7663 104.169 14.2222 104.305 14.7236C104.441 15.225 104.577 15.5441 104.849 15.8176H106.163V15.5441C105.891 15.3162 105.71 14.9971 105.619 14.5868C105.528 14.1766 105.392 13.7663 105.392 13.2649ZM100.089 7.65805H96.3718V1.32187H100.27C101.585 1.32187 102.537 1.59537 103.171 2.14238C103.806 2.68939 104.123 3.46432 104.123 4.51275C104.123 5.47002 103.806 6.24495 103.171 6.79196C102.537 7.33896 101.494 7.65805 100.089 7.65805Z" fill="white"/>
<path d="M105.392 13.2649V11.8062C105.392 10.8489 105.166 10.074 104.758 9.48142C104.35 8.88882 103.67 8.43298 102.673 8.20506C103.534 7.88597 104.214 7.43013 104.667 6.79196C105.12 6.15378 105.392 5.37885 105.392 4.55834C105.392 3.14523 104.939 2.0968 104.078 1.36745C103.217 0.63811 101.902 0.273438 100.27 0.273438H95.1025V15.8176H96.3718V8.75207H100.633C101.721 8.75207 102.582 9.02557 103.217 9.57258C103.851 10.1196 104.123 10.8945 104.123 11.8518V13.2649C104.123 13.7663 104.169 14.2222 104.305 14.7236C104.441 15.225 104.577 15.5441 104.849 15.8176H106.163V15.5441C105.891 15.3162 105.71 14.9971 105.619 14.5868C105.528 14.1766 105.392 13.7663 105.392 13.2649ZM100.089 7.65805H96.3718V1.32187H100.27C101.585 1.32187 102.537 1.59537 103.171 2.14238C103.806 2.68939 104.123 3.46432 104.123 4.51275C104.123 5.47002 103.806 6.24495 103.171 6.79196C102.537 7.33896 101.494 7.65805 100.089 7.65805Z" fill="white"/>
<path d="M114.594 0C112.781 0 111.331 0.638177 110.243 1.86895C109.155 3.09972 108.611 4.74074 108.611 6.74644V9.29915C108.611 11.3048 109.155 12.9459 110.243 14.1766C111.331 15.4074 112.781 16.0456 114.594 16.0456C116.453 16.0456 117.904 15.4074 118.991 14.1766C120.079 12.9459 120.623 11.3048 120.623 9.29915V6.74644C120.623 4.74074 120.079 3.09972 118.991 1.86895C117.949 0.638177 116.453 0 114.594 0ZM119.399 9.25356C119.399 10.9402 118.991 12.3077 118.13 13.3561C117.269 14.4046 116.136 14.906 114.594 14.906C113.144 14.906 111.965 14.4046 111.149 13.3561C110.333 12.3077 109.925 10.9858 109.925 9.25356V6.70086C109.925 5.01425 110.333 3.64672 111.149 2.64387C111.965 1.64103 113.099 1.09402 114.594 1.09402C116.09 1.09402 117.269 1.59544 118.13 2.64387C118.991 3.69231 119.399 5.01425 119.399 6.70086V9.25356Z" fill="white"/>
<path d="M114.594 0C112.781 0 111.331 0.638177 110.243 1.86895C109.155 3.09972 108.611 4.74074 108.611 6.74644V9.29915C108.611 11.3048 109.155 12.9459 110.243 14.1766C111.331 15.4074 112.781 16.0456 114.594 16.0456C116.453 16.0456 117.904 15.4074 118.991 14.1766C120.079 12.9459 120.623 11.3048 120.623 9.29915V6.74644C120.623 4.74074 120.079 3.09972 118.991 1.86895C117.949 0.638177 116.453 0 114.594 0ZM119.399 9.25356C119.399 10.9402 118.991 12.3077 118.13 13.3561C117.269 14.4046 116.136 14.906 114.594 14.906C113.144 14.906 111.965 14.4046 111.149 13.3561C110.333 12.3077 109.925 10.9858 109.925 9.25356V6.70086C109.925 5.01425 110.333 3.64672 111.149 2.64387C111.965 1.64103 113.099 1.09402 114.594 1.09402C116.09 1.09402 117.269 1.59544 118.13 2.64387C118.991 3.69231 119.399 5.01425 119.399 6.70086V9.25356Z" fill="white"/>
<path d="M133.588 10.5756C133.588 11.9431 133.18 12.9916 132.364 13.7665C131.548 14.5414 130.505 14.9517 129.281 14.9517C128.058 14.9517 127.06 14.5414 126.244 13.7665C125.428 12.9916 125.066 11.8975 125.066 10.5756V0.228027H123.751V10.5756C123.751 12.2622 124.25 13.6297 125.292 14.587C126.335 15.5443 127.65 16.0457 129.236 16.0457C130.868 16.0457 132.228 15.5443 133.271 14.587C134.313 13.6297 134.857 12.3078 134.857 10.5756V0.228027H133.588V10.5756V10.5756Z" fill="white"/>
<path d="M133.588 10.5756C133.588 11.9431 133.18 12.9916 132.364 13.7665C131.548 14.5414 130.505 14.9517 129.281 14.9517C128.058 14.9517 127.06 14.5414 126.244 13.7665C125.428 12.9916 125.066 11.8975 125.066 10.5756V0.228027H123.751V10.5756C123.751 12.2622 124.25 13.6297 125.292 14.587C126.335 15.5443 127.65 16.0457 129.236 16.0457C130.868 16.0457 132.228 15.5443 133.271 14.587C134.313 13.6297 134.857 12.3078 134.857 10.5756V0.228027H133.588V10.5756V10.5756Z" fill="white"/>
<path d="M143.878 0.228027H138.529V15.7722H139.798V9.29925H143.878C145.51 9.29925 146.734 8.889 147.64 8.06848C148.547 7.24797 148.955 6.15395 148.955 4.74085C148.955 3.37333 148.501 2.27931 147.64 1.4588C146.779 0.638284 145.51 0.228027 143.878 0.228027ZM146.779 7.24797C146.144 7.88615 145.192 8.20524 143.923 8.20524H139.843V1.32204H143.923C145.192 1.32204 146.144 1.64113 146.779 2.32489C147.413 3.00865 147.731 3.82917 147.731 4.78643C147.731 5.78928 147.413 6.60979 146.779 7.24797Z" fill="white"/>
<path d="M143.878 0.228027H138.529V15.7722H139.798V9.29925H143.878C145.51 9.29925 146.734 8.889 147.64 8.06848C148.547 7.24797 148.955 6.15395 148.955 4.74085C148.955 3.37333 148.501 2.27931 147.64 1.4588C146.779 0.638284 145.51 0.228027 143.878 0.228027ZM146.779 7.24797C146.144 7.88615 145.192 8.20524 143.923 8.20524H139.843V1.32204H143.923C145.192 1.32204 146.144 1.64113 146.779 2.32489C147.413 3.00865 147.731 3.82917 147.731 4.78643C147.731 5.78928 147.413 6.60979 146.779 7.24797Z" fill="white"/>
<g opacity="0.85">
<path opacity="0.85" d="M10.1086 1.59555C9.06602 0.683868 7.70611 0.228027 5.89291 0.228027H0V15.7722H3.08245V10.1198H5.89291C7.66078 10.1198 9.06602 9.66393 10.1086 8.75224C11.1512 7.84056 11.6498 6.65538 11.6498 5.1511C11.6498 3.64683 11.1512 2.50723 10.1086 1.59555ZM7.88743 7.02005C7.43413 7.47589 6.79951 7.7494 5.93824 7.7494H3.08245V2.64398H5.89291C6.75418 2.64398 7.43413 2.8719 7.8421 3.37333C8.25008 3.87475 8.52206 4.46734 8.52206 5.24227C8.56739 5.92603 8.34074 6.56421 7.88743 7.02005Z" fill="url(#paint0_linear)"/>
<path opacity="0.85" d="M10.1086 1.59555C9.06602 0.683868 7.70611 0.228027 5.89291 0.228027H0V15.7722H3.08245V10.1198H5.89291C7.66078 10.1198 9.06602 9.66393 10.1086 8.75224C11.1512 7.84056 11.6498 6.65538 11.6498 5.1511C11.6498 3.64683 11.1512 2.50723 10.1086 1.59555ZM7.88743 7.02005C7.43413 7.47589 6.79951 7.7494 5.93824 7.7494H3.08245V2.64398H5.89291C6.75418 2.64398 7.43413 2.8719 7.8421 3.37333C8.25008 3.87475 8.52206 4.46734 8.52206 5.24227C8.56739 5.92603 8.34074 6.56421 7.88743 7.02005Z" fill="url(#paint1_linear)"/>
<path opacity="0.85" d="M16.9533 0.228027H13.8708V15.7722H23.8888V13.3562H16.9533V0.228027Z" fill="url(#paint2_linear)"/>
<path opacity="0.85" d="M16.9533 0.228027H13.8708V15.7722H23.8888V13.3562H16.9533V0.228027Z" fill="url(#paint3_linear)"/>
<path opacity="0.85" d="M29.0566 8.93458H34.8135V6.51863H29.0566V2.64398H35.8561V0.228027H25.9741V15.7722H35.8561V13.3562H29.0566V8.93458Z" fill="url(#paint4_linear)"/>
<path opacity="0.85" d="M29.0566 8.93458H34.8135V6.51863H29.0566V2.64398H35.8561V0.228027H25.9741V15.7722H35.8561V13.3562H29.0566V8.93458Z" fill="url(#paint5_linear)"/>
<path opacity="0.85" d="M47.4607 10.7124H47.4154L41.1598 0.228027H38.0774V15.7722H41.1598V5.28786H41.2052L47.4607 15.7722H50.5432V0.228027H47.4607V10.7124Z" fill="url(#paint6_linear)"/>
<path opacity="0.85" d="M47.4607 10.7124H47.4154L41.1598 0.228027H38.0774V15.7722H41.1598V5.28786H41.2052L47.4607 15.7722H50.5432V0.228027H47.4607V10.7124Z" fill="url(#paint7_linear)"/>
<path opacity="0.85" d="M51.9937 2.64398H56.3453V15.7722H59.4731V2.64398H63.8701V0.228027H51.9937V2.64398Z" fill="url(#paint8_linear)"/>
<path opacity="0.85" d="M51.9937 2.64398H56.3453V15.7722H59.4731V2.64398H63.8701V0.228027H51.9937V2.64398Z" fill="url(#paint9_linear)"/>
<path opacity="0.85" d="M71.2589 7.38472H71.2136L67.8138 0.228027H64.4141L69.6723 10.1653V15.7722H72.7548V10.3021L78.0584 0.228027H74.6587L71.2589 7.38472Z" fill="url(#paint10_linear)"/>
<path opacity="0.85" d="M71.2589 7.38472H71.2136L67.8138 0.228027H64.4141L69.6723 10.1653V15.7722H72.7548V10.3021L78.0584 0.228027H74.6587L71.2589 7.38472Z" fill="url(#paint11_linear)"/>
<path opacity="0.85" d="M85.7192 9.29915H89.8895V13.265C89.6176 13.7208 89.1643 14.0855 88.439 14.4046C87.7137 14.7236 86.8524 14.906 85.7645 14.906C84.3593 14.906 83.1807 14.4046 82.3194 13.3561C81.4581 12.3077 81.0048 10.9858 81.0048 9.34473V6.47293C81.0048 4.87749 81.4128 3.60114 82.2741 2.59829C83.1354 1.59544 84.2233 1.09402 85.6285 1.09402C86.9884 1.09402 88.031 1.45869 88.7563 2.14245C89.4816 2.82621 89.8442 3.73789 89.8442 4.78633H91.0228L91.0681 4.74074C91.0681 4.69516 91.0681 4.64957 91.0681 4.60399C91.0681 3.28205 90.5695 2.18803 89.6176 1.32194C88.6203 0.410256 87.3057 0 85.6285 0C83.906 0 82.4554 0.592593 81.3675 1.82336C80.2796 3.05413 79.7356 4.60399 79.7356 6.51852V9.39031C79.7356 11.3504 80.2796 12.9459 81.4581 14.1766C82.6367 15.4074 84.042 16.0456 85.8098 16.0456C87.2151 16.0456 88.3483 15.8177 89.3002 15.3162C90.2522 14.8148 90.8415 14.3134 91.2041 13.7208V8.20513H85.7645V9.29915H85.7192Z" fill="url(#paint12_linear)"/>
<path opacity="0.85" d="M85.7192 9.29915H89.8895V13.265C89.6176 13.7208 89.1643 14.0855 88.439 14.4046C87.7137 14.7236 86.8524 14.906 85.7645 14.906C84.3593 14.906 83.1807 14.4046 82.3194 13.3561C81.4581 12.3077 81.0048 10.9858 81.0048 9.34473V6.47293C81.0048 4.87749 81.4128 3.60114 82.2741 2.59829C83.1354 1.59544 84.2233 1.09402 85.6285 1.09402C86.9884 1.09402 88.031 1.45869 88.7563 2.14245C89.4816 2.82621 89.8442 3.73789 89.8442 4.78633H91.0228L91.0681 4.74074C91.0681 4.69516 91.0681 4.64957 91.0681 4.60399C91.0681 3.28205 90.5695 2.18803 89.6176 1.32194C88.6203 0.410256 87.3057 0 85.6285 0C83.906 0 82.4554 0.592593 81.3675 1.82336C80.2796 3.05413 79.7356 4.60399 79.7356 6.51852V9.39031C79.7356 11.3504 80.2796 12.9459 81.4581 14.1766C82.6367 15.4074 84.042 16.0456 85.8098 16.0456C87.2151 16.0456 88.3483 15.8177 89.3002 15.3162C90.2522 14.8148 90.8415 14.3134 91.2041 13.7208V8.20513H85.7645V9.29915H85.7192Z" fill="url(#paint13_linear)"/>
<path opacity="0.85" d="M105.392 13.2649V11.8062C105.392 10.8489 105.166 10.074 104.758 9.48142C104.35 8.88882 103.67 8.43298 102.673 8.20506C103.534 7.88597 104.214 7.43013 104.667 6.79196C105.12 6.15378 105.392 5.37885 105.392 4.55834C105.392 3.14523 104.939 2.0968 104.078 1.36745C103.217 0.63811 101.902 0.273438 100.27 0.273438H95.1025V15.8176H96.3718V8.75207H100.633C101.721 8.75207 102.582 9.02557 103.217 9.57258C103.851 10.1196 104.123 10.8945 104.123 11.8518V13.2649C104.123 13.7663 104.169 14.2222 104.305 14.7236C104.441 15.225 104.577 15.5441 104.849 15.8176H106.163V15.5441C105.891 15.3162 105.71 14.9971 105.619 14.5868C105.528 14.1766 105.392 13.7663 105.392 13.2649ZM100.089 7.65805H96.3718V1.32187H100.27C101.585 1.32187 102.537 1.59537 103.171 2.14238C103.806 2.68939 104.123 3.46432 104.123 4.51275C104.123 5.47002 103.806 6.24495 103.171 6.79196C102.537 7.33896 101.494 7.65805 100.089 7.65805Z" fill="url(#paint14_linear)"/>
<path opacity="0.85" d="M105.392 13.2649V11.8062C105.392 10.8489 105.166 10.074 104.758 9.48142C104.35 8.88882 103.67 8.43298 102.673 8.20506C103.534 7.88597 104.214 7.43013 104.667 6.79196C105.12 6.15378 105.392 5.37885 105.392 4.55834C105.392 3.14523 104.939 2.0968 104.078 1.36745C103.217 0.63811 101.902 0.273438 100.27 0.273438H95.1025V15.8176H96.3718V8.75207H100.633C101.721 8.75207 102.582 9.02557 103.217 9.57258C103.851 10.1196 104.123 10.8945 104.123 11.8518V13.2649C104.123 13.7663 104.169 14.2222 104.305 14.7236C104.441 15.225 104.577 15.5441 104.849 15.8176H106.163V15.5441C105.891 15.3162 105.71 14.9971 105.619 14.5868C105.528 14.1766 105.392 13.7663 105.392 13.2649ZM100.089 7.65805H96.3718V1.32187H100.27C101.585 1.32187 102.537 1.59537 103.171 2.14238C103.806 2.68939 104.123 3.46432 104.123 4.51275C104.123 5.47002 103.806 6.24495 103.171 6.79196C102.537 7.33896 101.494 7.65805 100.089 7.65805Z" fill="url(#paint15_linear)"/>
<path opacity="0.85" d="M114.594 0C112.781 0 111.331 0.638177 110.243 1.86895C109.155 3.09972 108.611 4.74074 108.611 6.74644V9.29915C108.611 11.3048 109.155 12.9459 110.243 14.1766C111.331 15.4074 112.781 16.0456 114.594 16.0456C116.453 16.0456 117.904 15.4074 118.991 14.1766C120.079 12.9459 120.623 11.3048 120.623 9.29915V6.74644C120.623 4.74074 120.079 3.09972 118.991 1.86895C117.949 0.638177 116.453 0 114.594 0ZM119.399 9.25356C119.399 10.9402 118.991 12.3077 118.13 13.3561C117.269 14.4046 116.136 14.906 114.594 14.906C113.144 14.906 111.965 14.4046 111.149 13.3561C110.333 12.3077 109.925 10.9858 109.925 9.25356V6.70086C109.925 5.01425 110.333 3.64672 111.149 2.64387C111.965 1.64103 113.099 1.09402 114.594 1.09402C116.09 1.09402 117.269 1.59544 118.13 2.64387C118.991 3.69231 119.399 5.01425 119.399 6.70086V9.25356Z" fill="url(#paint16_linear)"/>
<path opacity="0.85" d="M114.594 0C112.781 0 111.331 0.638177 110.243 1.86895C109.155 3.09972 108.611 4.74074 108.611 6.74644V9.29915C108.611 11.3048 109.155 12.9459 110.243 14.1766C111.331 15.4074 112.781 16.0456 114.594 16.0456C116.453 16.0456 117.904 15.4074 118.991 14.1766C120.079 12.9459 120.623 11.3048 120.623 9.29915V6.74644C120.623 4.74074 120.079 3.09972 118.991 1.86895C117.949 0.638177 116.453 0 114.594 0ZM119.399 9.25356C119.399 10.9402 118.991 12.3077 118.13 13.3561C117.269 14.4046 116.136 14.906 114.594 14.906C113.144 14.906 111.965 14.4046 111.149 13.3561C110.333 12.3077 109.925 10.9858 109.925 9.25356V6.70086C109.925 5.01425 110.333 3.64672 111.149 2.64387C111.965 1.64103 113.099 1.09402 114.594 1.09402C116.09 1.09402 117.269 1.59544 118.13 2.64387C118.991 3.69231 119.399 5.01425 119.399 6.70086V9.25356Z" fill="url(#paint17_linear)"/>
<path opacity="0.85" d="M133.588 10.5756C133.588 11.9431 133.18 12.9916 132.364 13.7665C131.548 14.5414 130.505 14.9517 129.281 14.9517C128.058 14.9517 127.06 14.5414 126.244 13.7665C125.428 12.9916 125.066 11.8975 125.066 10.5756V0.228027H123.751V10.5756C123.751 12.2622 124.25 13.6297 125.292 14.587C126.335 15.5443 127.65 16.0457 129.236 16.0457C130.868 16.0457 132.228 15.5443 133.271 14.587C134.313 13.6297 134.857 12.3078 134.857 10.5756V0.228027H133.588V10.5756V10.5756Z" fill="url(#paint18_linear)"/>
<path opacity="0.85" d="M133.588 10.5756C133.588 11.9431 133.18 12.9916 132.364 13.7665C131.548 14.5414 130.505 14.9517 129.281 14.9517C128.058 14.9517 127.06 14.5414 126.244 13.7665C125.428 12.9916 125.066 11.8975 125.066 10.5756V0.228027H123.751V10.5756C123.751 12.2622 124.25 13.6297 125.292 14.587C126.335 15.5443 127.65 16.0457 129.236 16.0457C130.868 16.0457 132.228 15.5443 133.271 14.587C134.313 13.6297 134.857 12.3078 134.857 10.5756V0.228027H133.588V10.5756V10.5756Z" fill="url(#paint19_linear)"/>
<path opacity="0.85" d="M143.878 0.228027H138.529V15.7722H139.798V9.29925H143.878C145.51 9.29925 146.734 8.889 147.64 8.06848C148.547 7.24797 148.955 6.15395 148.955 4.74085C148.955 3.37333 148.501 2.27931 147.64 1.4588C146.779 0.638284 145.51 0.228027 143.878 0.228027ZM146.779 7.24797C146.144 7.88615 145.192 8.20524 143.923 8.20524H139.843V1.32204H143.923C145.192 1.32204 146.144 1.64113 146.779 2.32489C147.413 3.00865 147.731 3.82917 147.731 4.78643C147.731 5.78928 147.413 6.60979 146.779 7.24797Z" fill="url(#paint20_linear)"/>
<path opacity="0.85" d="M143.878 0.228027H138.529V15.7722H139.798V9.29925H143.878C145.51 9.29925 146.734 8.889 147.64 8.06848C148.547 7.24797 148.955 6.15395 148.955 4.74085C148.955 3.37333 148.501 2.27931 147.64 1.4588C146.779 0.638284 145.51 0.228027 143.878 0.228027ZM146.779 7.24797C146.144 7.88615 145.192 8.20524 143.923 8.20524H139.843V1.32204H143.923C145.192 1.32204 146.144 1.64113 146.779 2.32489C147.413 3.00865 147.731 3.82917 147.731 4.78643C147.731 5.78928 147.413 6.60979 146.779 7.24797Z" fill="url(#paint21_linear)"/>
</g>
</g>
<defs>
<linearGradient id="paint0_linear" x1="0" y1="8.00225" x2="11.6548" y2="8.00225" gradientUnits="userSpaceOnUse">
<stop stop-color="#E15A5A"/>
<stop offset="1" stop-color="#704595"/>
</linearGradient>
<linearGradient id="paint1_linear" x1="-2.33024" y1="8.00225" x2="151.792" y2="8.00225" gradientUnits="userSpaceOnUse">
<stop stop-color="#E15A5A"/>
<stop offset="1" stop-color="#704595"/>
</linearGradient>
<linearGradient id="paint2_linear" x1="13.8645" y1="8.00225" x2="23.8937" y2="8.00225" gradientUnits="userSpaceOnUse">
<stop stop-color="#E15A5A"/>
<stop offset="1" stop-color="#704595"/>
</linearGradient>
<linearGradient id="paint3_linear" x1="-2.33039" y1="8.00225" x2="151.792" y2="8.00225" gradientUnits="userSpaceOnUse">
<stop stop-color="#E15A5A"/>
<stop offset="1" stop-color="#704595"/>
</linearGradient>
<linearGradient id="paint4_linear" x1="25.955" y1="8.00225" x2="35.878" y2="8.00225" gradientUnits="userSpaceOnUse">
<stop stop-color="#E15A5A"/>
<stop offset="1" stop-color="#704595"/>
</linearGradient>
<linearGradient id="paint5_linear" x1="-2.33027" y1="8.00225" x2="151.792" y2="8.00225" gradientUnits="userSpaceOnUse">
<stop stop-color="#E15A5A"/>
<stop offset="1" stop-color="#704595"/>
</linearGradient>
<linearGradient id="paint6_linear" x1="38.0561" y1="8.00225" x2="50.5609" y2="8.00225" gradientUnits="userSpaceOnUse">
<stop stop-color="#E15A5A"/>
<stop offset="1" stop-color="#704595"/>
</linearGradient>
<linearGradient id="paint7_linear" x1="-2.33011" y1="8.00225" x2="151.792" y2="8.00225" gradientUnits="userSpaceOnUse">
<stop stop-color="#E15A5A"/>
<stop offset="1" stop-color="#704595"/>
</linearGradient>
<linearGradient id="paint8_linear" x1="52.0057" y1="8.00225" x2="63.8836" y2="8.00225" gradientUnits="userSpaceOnUse">
<stop stop-color="#E15A5A"/>
<stop offset="1" stop-color="#704595"/>
</linearGradient>
<linearGradient id="paint9_linear" x1="-2.33019" y1="8.00225" x2="151.792" y2="8.00225" gradientUnits="userSpaceOnUse">
<stop stop-color="#E15A5A"/>
<stop offset="1" stop-color="#704595"/>
</linearGradient>
<linearGradient id="paint10_linear" x1="64.436" y1="8.00225" x2="78.0563" y2="8.00225" gradientUnits="userSpaceOnUse">
<stop stop-color="#E15A5A"/>
<stop offset="1" stop-color="#704595"/>
</linearGradient>
<linearGradient id="paint11_linear" x1="-2.33019" y1="8.00225" x2="151.792" y2="8.00225" gradientUnits="userSpaceOnUse">
<stop stop-color="#E15A5A"/>
<stop offset="1" stop-color="#704595"/>
</linearGradient>
<linearGradient id="paint12_linear" x1="79.7243" y1="8.00214" x2="91.156" y2="8.00214" gradientUnits="userSpaceOnUse">
<stop stop-color="#E15A5A"/>
<stop offset="1" stop-color="#704595"/>
</linearGradient>
<linearGradient id="paint13_linear" x1="-2.33028" y1="8.00215" x2="151.792" y2="8.00215" gradientUnits="userSpaceOnUse">
<stop stop-color="#E15A5A"/>
<stop offset="1" stop-color="#704595"/>
</linearGradient>
<linearGradient id="paint14_linear" x1="95.0976" y1="8.00741" x2="106.115" y2="8.00741" gradientUnits="userSpaceOnUse">
<stop stop-color="#E15A5A"/>
<stop offset="1" stop-color="#704595"/>
</linearGradient>
<linearGradient id="paint15_linear" x1="-2.3302" y1="8.00741" x2="151.792" y2="8.00741" gradientUnits="userSpaceOnUse">
<stop stop-color="#E15A5A"/>
<stop offset="1" stop-color="#704595"/>
</linearGradient>
<linearGradient id="paint16_linear" x1="108.665" y1="8.00214" x2="120.681" y2="8.00214" gradientUnits="userSpaceOnUse">
<stop stop-color="#E15A5A"/>
<stop offset="1" stop-color="#704595"/>
</linearGradient>
<linearGradient id="paint17_linear" x1="-2.33036" y1="8.00215" x2="151.792" y2="8.00215" gradientUnits="userSpaceOnUse">
<stop stop-color="#E15A5A"/>
<stop offset="1" stop-color="#704595"/>
</linearGradient>
<linearGradient id="paint18_linear" x1="123.762" y1="8.11443" x2="134.843" y2="8.11443" gradientUnits="userSpaceOnUse">
<stop stop-color="#E15A5A"/>
<stop offset="1" stop-color="#704595"/>
</linearGradient>
<linearGradient id="paint19_linear" x1="-2.33017" y1="8.11443" x2="151.792" y2="8.11443" gradientUnits="userSpaceOnUse">
<stop stop-color="#E15A5A"/>
<stop offset="1" stop-color="#704595"/>
</linearGradient>
<linearGradient id="paint20_linear" x1="138.561" y1="8.00225" x2="148.994" y2="8.00225" gradientUnits="userSpaceOnUse">
<stop stop-color="#E15A5A"/>
<stop offset="1" stop-color="#704595"/>
</linearGradient>
<linearGradient id="paint21_linear" x1="-2.33015" y1="8.00225" x2="151.792" y2="8.00225" gradientUnits="userSpaceOnUse">
<stop stop-color="#E15A5A"/>
<stop offset="1" stop-color="#704595"/>
</linearGradient>
<clipPath id="clip0">
<rect width="149" height="16" fill="white"/>
</clipPath>
</defs>
</svg>
