<svg width="85" height="53" viewBox="0 0 85 53" fill="none" xmlns="http://www.w3.org/2000/svg">
<g clip-path="url(#clip0)">
<path d="M2.80548 0.836426C4.11868 0.836426 5.37219 1.85221 5.37219 3.46551C5.37219 5.25807 4.05899 6.27386 2.80548 6.27386C1.3132 6.27386 0 5.25807 0 3.46551C0 1.85221 1.3132 0.836426 2.80548 0.836426ZM0.477528 9.79922H5.01404V27.4858H0.477528V9.79922Z" fill="#FF5C00"/>
<path d="M10.6846 0H15.2211V11.4126C16.3552 10.3371 18.2653 9.50056 20.2948 9.50056C24.5926 9.50056 27.5771 11.7114 27.5771 17.2086V27.4859H23.0406V17.8061C23.0406 15.177 21.608 13.743 19.101 13.743C17.6684 13.743 16.2358 14.3405 15.2211 15.3563V27.4859H10.6846V0Z" fill="#FF5C00"/>
<path d="M32.2929 11.0539C33.8449 10.1576 36.2325 9.38086 38.5008 9.38086C43.6939 9.38086 45.5443 12.0697 45.5443 16.7304V27.4857H41.6047V25.4541C40.6497 26.7687 38.7993 27.7247 36.4116 27.7247C33.1883 27.7247 30.8604 25.6931 30.8604 22.2873C30.8604 18.4034 33.7255 16.5511 37.307 16.5511C38.8589 16.5511 40.4706 17.0889 41.3063 17.6864C41.4257 14.7585 40.6497 13.1452 38.0233 13.1452C35.9938 13.1452 34.6806 13.8025 33.3674 14.3403L32.2929 11.0539ZM41.366 22.2873V20.4947C40.59 19.8972 39.5752 19.6582 38.262 19.6582C36.7698 19.6582 35.4566 20.3752 35.4566 21.869C35.4566 23.1836 36.531 23.9603 37.9636 23.9603C39.8737 23.9006 40.8288 23.0641 41.366 22.2873Z" fill="#FF5C00"/>
<path d="M59.0348 27.5457H55.6921L47.6338 9.79932H53.006L56.289 17.3878C56.7665 18.4634 57.3037 20.0169 57.6022 21.3912C57.9006 20.0767 58.4379 18.4634 58.9154 17.3281L61.9596 9.85907H66.7349L59.0348 27.5457Z" fill="#FF5C00"/>
<path d="M83.5074 25.6931C81.7167 27.1869 79.2097 27.904 76.7624 27.904C71.0917 27.904 67.2715 24.1994 67.2715 18.6424C67.2715 13.5037 70.7933 9.38086 76.5833 9.38086C81.1198 9.38086 84.94 12.6672 84.94 17.5669C84.94 18.6424 84.8803 19.3594 84.6416 20.0167H71.8677C72.2855 22.7055 74.3747 24.1396 77.1802 24.1396C79.3291 24.1396 81.1198 23.3628 82.1346 22.5263L83.5074 25.6931ZM71.808 17.0291H80.4632C80.5229 14.878 79.0306 13.205 76.4042 13.205C73.7181 13.1452 72.2855 14.6988 71.808 17.0291Z" fill="#FF5C00"/>
<path d="M0.955078 31.8477H2.86519V36.3888H9.4312V38.1814H2.86519V46.2479C2.86519 49.4147 3.93963 51.1475 6.50634 51.1475C7.58078 51.1475 8.53584 50.7293 9.13275 50.2513L9.72966 51.7451C8.95367 52.3426 7.64047 52.8803 6.0885 52.8803C2.44735 52.8803 1.01477 50.6098 1.01477 46.4869V31.8477H0.955078Z" fill="black"/>
<path d="M13.9083 36.329H15.8184V38.4801C16.7138 37.1058 18.0867 36.0303 20.1759 36.0303C21.4891 36.0303 22.1457 36.2693 22.6829 36.6278L22.0263 38.4204C21.2503 37.9423 20.7728 37.8228 19.758 37.8228C17.6092 37.8228 16.5347 39.1374 15.7587 40.4519V52.6413H13.8486V36.329H13.9083Z" fill="black"/>
<path d="M25.7867 37.5241C27.279 36.568 29.0697 36.0303 30.9798 36.0303C35.5164 36.0303 37.0086 38.4204 37.0086 42.5432V52.6413H35.0985V50.1317C34.0838 51.506 32.4721 52.8206 29.5473 52.8206C26.5627 52.8206 24.5332 50.9085 24.5332 47.9807C24.5332 44.6943 27.2193 42.9018 30.7411 42.9018C32.0543 42.9018 33.845 43.2005 35.1582 44.1565C35.1582 40.2727 34.9194 37.7631 30.8605 37.7631C28.9503 37.7631 27.7565 38.2411 26.3239 39.0179L25.7867 37.5241ZM35.1582 48.5184V45.8296C33.9644 44.9333 32.5915 44.5151 30.9201 44.5151C28.7713 44.5151 26.5627 45.5308 26.5627 47.9209C26.5627 49.9525 28.1744 51.0878 30.2039 51.0878C32.8899 51.0878 34.2628 49.7135 35.1582 48.5184Z" fill="black"/>
<path d="M48.8871 52.8804H47.5739L39.9932 36.3291H42.2017L46.8576 46.6064C47.3352 47.7417 47.9321 48.9965 48.3499 50.1916C48.7677 48.9965 49.305 47.682 49.7825 46.4869L54.2593 36.3291H56.2291L48.8871 52.8804Z" fill="black"/>
<path d="M72.3451 50.6695C70.8529 52.2231 68.5249 52.9998 66.3163 52.9998C61.1829 52.9998 57.6611 49.6537 57.6611 44.5151C57.6611 39.7946 60.586 36.0303 65.8985 36.0303C70.0769 36.0303 73.3002 38.9581 73.3002 43.3798C73.3002 43.9773 73.2405 44.4553 73.1808 44.8736H59.7503C59.8697 48.7574 62.4961 51.1475 66.4357 51.1475C68.6443 51.1475 70.6141 50.311 71.7482 49.1757L72.3451 50.6695ZM59.6906 43.3798H71.3901C71.3304 39.9142 69.1218 37.8228 65.7194 37.8228C62.138 37.8228 59.9891 40.1532 59.6906 43.3798Z" fill="black"/>
<path d="M77.8369 32.0869H79.747V47.4432C79.747 49.893 80.3439 51.088 82.075 51.088C82.9703 51.088 83.806 50.6698 84.3432 50.3113L84.8208 51.8051C84.0448 52.4026 82.851 52.8806 81.3587 52.8806C78.9114 52.8806 77.8369 51.4466 77.8369 48.459V32.0869Z" fill="black"/>
</g>
<defs>
<clipPath id="clip0">
<rect width="85" height="53" fill="white"/>
</clipPath>
</defs>
</svg>
